<svg width="22" height="22" viewBox="0 0 22 22" fill="none" xmlns="http://www.w3.org/2000/svg">
<path fill-rule="evenodd" clip-rule="evenodd" d="M17.3003 2.31081C17.5222 2.21892 17.7599 2.17163 18 2.17163C18.2401 2.17163 18.4779 2.21892 18.6997 2.31081C18.9216 2.4027 19.1231 2.53738 19.2929 2.70716C19.4627 2.87695 19.5974 3.07852 19.6893 3.30035C19.7812 3.52218 19.8284 3.75994 19.8284 4.00006C19.8284 4.24017 19.7812 4.47793 19.6893 4.69977C19.5974 4.9216 19.4627 5.12317 19.2929 5.29295L5.9807 18.6052L2.42524 19.5748L3.39491 16.0194L16.7071 2.70716C16.8769 2.53738 17.0785 2.4027 17.3003 2.31081ZM18 0.171631C17.4973 0.171631 16.9994 0.270656 16.5349 0.463052C16.0705 0.655449 15.6484 0.937449 15.2929 1.29295L1.79292 14.793C1.66986 14.916 1.58105 15.069 1.53526 15.2369L0.0352593 20.7369C-0.0591621 21.0832 0.0391662 21.4534 0.292916 21.7072C0.546667 21.9609 0.916928 22.0592 1.26314 21.9648L6.76314 20.4648C6.93104 20.419 7.08407 20.3302 7.20713 20.2072L20.7071 6.70716C21.0626 6.35166 21.3446 5.92962 21.537 5.46513C21.7294 5.00064 21.8284 4.50281 21.8284 4.00006C21.8284 3.4973 21.7294 2.99947 21.537 2.53498C21.3446 2.07049 21.0626 1.64845 20.7071 1.29295C20.3516 0.937449 19.9296 0.655449 19.4651 0.463052C19.0006 0.270656 18.5028 0.171631 18 0.171631Z" fill="#202020"/>
</svg>
